<svg width="55" height="55" viewBox="0 0 55 55" fill="none" xmlns="http://www.w3.org/2000/svg">
<g filter="url(#filter0_i_7_29)">
<rect width="55" height="55" rx="15" fill="url(#paint0_linear_7_29)"/>
<rect x="0.5" y="0.5" width="54" height="54" rx="14.5" stroke="#4E4E4E"/>
<path d="M45.4911 28.4287L40.2411 33.6787C40.0575 33.8624 39.8236 33.9876 39.5688 34.0383C39.3141 34.089 39.05 34.063 38.8101 33.9636C38.5701 33.8642 38.3651 33.6958 38.2209 33.4798C38.0767 33.2638 37.9998 33.0098 38 32.7501V28.8126H17V32.7501C17.0002 33.0098 16.9233 33.2638 16.7791 33.4798C16.6349 33.6958 16.4299 33.8642 16.1899 33.9636C15.95 34.063 15.6859 34.089 15.4312 34.0383C15.1764 33.9876 14.9425 33.8624 14.7589 33.6787L9.5089 28.4287C9.38687 28.3068 9.29006 28.162 9.22401 28.0027C9.15796 27.8433 9.12397 27.6725 9.12397 27.5001C9.12397 27.3276 9.15796 27.1568 9.22401 26.9974C9.29006 26.8381 9.38687 26.6934 9.5089 26.5715L14.7589 21.3215C14.9425 21.1377 15.1764 21.0125 15.4312 20.9618C15.6859 20.9111 15.95 20.9371 16.1899 21.0365C16.4299 21.1359 16.6349 21.3043 16.7791 21.5203C16.9233 21.7364 17.0002 21.9903 17 22.2501V26.1876H38V22.2501C37.9998 21.9903 38.0767 21.7364 38.2209 21.5203C38.3651 21.3043 38.5701 21.1359 38.8101 21.0365C39.05 20.9371 39.3141 20.9111 39.5688 20.9618C39.8236 21.0125 40.0575 21.1377 40.2411 21.3215L45.4911 26.5715C45.6131 26.6934 45.7099 26.8381 45.776 26.9974C45.842 27.1568 45.876 27.3276 45.876 27.5001C45.876 27.6725 45.842 27.8433 45.776 28.0027C45.7099 28.162 45.6131 28.3068 45.4911 28.4287Z" fill="url(#paint1_linear_7_29)"/>
</g>
<defs>
<filter id="filter0_i_7_29" x="0" y="-3.6" width="55" height="58.6" filterUnits="userSpaceOnUse" color-interpolation-filters="sRGB">
<feFlood flood-opacity="0" result="BackgroundImageFix"/>
<feBlend mode="normal" in="SourceGraphic" in2="BackgroundImageFix" result="shape"/>
<feColorMatrix in="SourceAlpha" type="matrix" values="0 0 0 0 0 0 0 0 0 0 0 0 0 0 0 0 0 0 127 0" result="hardAlpha"/>
<feOffset dy="-6"/>
<feGaussianBlur stdDeviation="1.8"/>
<feComposite in2="hardAlpha" operator="arithmetic" k2="-1" k3="1"/>
<feColorMatrix type="matrix" values="0 0 0 0 0 0 0 0 0 0 0 0 0 0 0 0 0 0 0.25 0"/>
<feBlend mode="normal" in2="shape" result="effect1_innerShadow_7_29"/>
</filter>
<linearGradient id="paint0_linear_7_29" x1="27.5" y1="0" x2="27.5" y2="55" gradientUnits="userSpaceOnUse">
<stop stop-color="white"/>
<stop offset="1" stop-color="#C4C4C4"/>
</linearGradient>
<linearGradient id="paint1_linear_7_29" x1="27.5" y1="20.9365" x2="27.5" y2="34.0636" gradientUnits="userSpaceOnUse">
<stop/>
<stop offset="1" stop-color="#444444"/>
</linearGradient>
</defs>
</svg>
